<?xml version="1.0" encoding="utf-8"?>
<!-- Generator: Adobe Illustrator 27.5.0, SVG Export Plug-In . SVG Version: 6.00 Build 0)  -->
<svg version="1.1" xmlns="http://www.w3.org/2000/svg" xmlns:xlink="http://www.w3.org/1999/xlink" x="0px" y="0px"
	 viewBox="0 0 3710 3710" style="enable-background:new 0 0 3710 3710;" xml:space="preserve">
<g id="Background">
	<g>
		<g>
			<rect style="fill:#FFFFFF;" width="3710" height="3710"/>
		</g>
	</g>
</g>
<g id="Illustration">
	<g>
		<linearGradient id="SVGID_1_" gradientUnits="userSpaceOnUse" x1="3592.8823" y1="4076.4478" x2="1116.3723" y2="1000.7776">
			<stop  offset="0" style="stop-color:#DAE3FE"/>
			<stop  offset="1" style="stop-color:#E9EFFD"/>
		</linearGradient>
		<path style="fill:url(#SVGID_1_);" d="M2911.579,2863.515c-56.884,59.885-110.708,98.505-153.233,129.017
			c-499.872,358.664-1091.354,254.115-1217.06,228.583c-185.629-37.702-544.446-110.58-803.864-415.65
			c-392.478-461.546-331.363-1188.699-26.931-1668.703c55.685-87.801,349.832-575.116,947.684-653.266
			c361.814-47.295,783.572,48.094,1088.998,303.98C3388.289,1324.604,3342.649,2409.698,2911.579,2863.515z"/>
		<g>
			<path style="fill:#BDD0FB;" d="M680.798,473.821c-0.653-14.107,20.035-19.543,29.914-7.93
				c100.325,117.92,330.788,457.984,166.383,946.426c-206.27,612.824-97.294,870.821,65.56,1046.181
				c0,0-247.262-114.317-367.073-377.833C281.421,1433.672,692.404,724.652,680.798,473.821z"/>
			<path style="fill:#FFFFFF;" d="M734.074,687.196c1.713,72.827,1.778,145.569-1.212,218.068
				c-2.551,72.52-7.628,144.822-15.294,216.763c-7.984,71.894-17.523,143.575-30.566,214.633
				c-12.672,71.123-28.867,141.529-45.413,212.155c-16.079,70.687-32.744,141.795-41.01,214.997
				c-8.326,73.038-6.722,148.581,10.666,222.362c4.356,18.392,9.111,36.804,15.048,54.846c5.562,18.128,12.033,36.088,18.866,53.957
				c13.868,35.696,30.431,70.774,49.842,104.758c39.021,67.9,89.569,131.107,147.73,187.472c6.122,5.932,16.342,6.662,22.829,1.631
				c6.369-4.94,6.768-13.6,0.985-19.528l-0.041-0.042c-13.722-14.038-27.251-28.188-40.041-42.782
				c-6.525-7.216-12.684-14.651-18.995-21.99c-5.996-7.524-12.319-14.863-18.052-22.528c-23.5-30.342-44.615-61.976-63.021-94.692
				c-37.132-65.22-63.559-135.107-80.312-205.572c-7.927-35.305-12.884-70.92-14.698-106.6
				c-1.782-35.683-0.427-71.394,3.273-106.958c7.4-71.167,23.219-141.699,38.708-212.509
				c15.386-70.849,30.282-142.162,41.753-214.056c5.847-35.923,10.947-71.969,15.298-108.111
				c2.296-18.053,4.187-36.161,6.116-54.261c1.728-18.126,3.341-36.262,4.783-54.414c5.613-72.629,8.669-145.49,9.074-218.456
				c0.003-72.985-2.218-146.05-7.663-219.065c-0.156-2.088-2.217-3.758-4.605-3.733
				C735.805,683.565,734.031,685.191,734.074,687.196z"/>
		</g>
		<g>
			<g>
				<path style="fill:#91B3FA;" d="M705.881,1789.341c-17.365,12.674-42.029,3.494-47.156-17.383
					c-28.29-115.195-78.823-448.126,168.195-774.717c208.596-275.791,295.496-445.159,329.618-524.78
					c7.216-16.836,31.731-14.675,35.924,3.155C1238.733,672.342,1335.093,1330.105,705.881,1789.341z"/>
				<path style="fill:#FFFFFF;" d="M681.645,1773.22c-0.533-0.004-1.071-0.059-1.614-0.169c-4.543-0.92-7.48-5.349-6.56-9.891
					c1.043-5.151,107.443-519.556,380.159-916.127c2.626-3.815,7.85-4.784,11.673-2.16c3.819,2.628,4.786,7.852,2.16,11.674
					c-270.732,393.684-376.504,904.83-377.541,909.945C689.114,1770.493,685.581,1773.248,681.645,1773.22z"/>
			</g>
		</g>
		<g>
			
				<ellipse transform="matrix(0.0439 -0.999 0.999 0.0439 -30.8842 3674.3503)" style="fill:#7D97F4;" cx="1904.155" cy="1853.31" rx="1244.717" ry="1343.55"/>
			<path style="fill:#91B3FA;" d="M890.608,1028.661c-29.491,47.344-52.23,100.642-47.959,156.257
				c4.944,64.396,37.537,124.7,39.208,189.263c2.833,109.496-81.692,201.15-108.059,307.462
				c-29.472,118.828,81.647,254.222,125.919,320.546c44.271,66.324,25.245-53.814,52.092-100.661
				c26.847-46.847,84.734,197.122,175.156,250.667c48.514,28.728,105.431,47.852,140.323,92.14
				c50.89,64.594,36.789,156.51,29.149,238.388c-7.64,81.877,3.804,181.661,77.543,218.059
				c43.419,21.432,98.607,14.178,137.789,42.627c68.809,49.96,35.939,158.881,63.205,239.425
				c29.651,87.589,88.445,88.742,179.41,107.312c90.965,18.57-11.461-181.274,31.153-251.12
				c22.398-36.711,56.592-65.926,74.257-105.134c24.499-54.376,17.599-127.028,65.125-163.058
				c35.626-27.008,85.198-19.702,129.902-20.096c44.704-0.394,99.076-19.793,104.147-64.211c4.5-39.411-34.954-70.837-73.555-79.969
				s-79.733-4.778-117.644-16.451c-108.435-33.388-159.012-185.128-272.249-192.228c-96.794-6.069-177.866,102.579-272.975,83.602
				c-53.022-10.579-89.315-57.537-128.673-94.608c-50.559-47.622-113.307-83.363-153.448-140.044
				c-40.141-56.681-46.97-147.281,10.135-186.817c42.419-29.369,102.692-17.447,144.599,12.649
				c41.907,30.096,70.45,74.75,101.226,116.16c9.505,12.789,20.263,26.043,35.47,30.804c40.922,12.81,70.783-44.763,60.991-86.51
				s-39.283-78.467-40.668-121.325c-2.441-75.533,78.899-123.461,150.255-148.35c71.357-24.889,155.461-54.562,176.44-127.165
				c7.41-25.645,5.466-53.865,16.776-78.045c37.48-80.135,235.254-120.14,187.98-166.607
				c-47.275-46.467-197.322-56.567-226.541-150.149c-10.46-33.503-21.23-77.788-56.178-81.028
				c-56.925-5.278-89.406,65.184-137.154,77.279c-22.667,5.742-24.848,44.243-23.964,91.586
				c0.641,34.365-26.692,62.745-61.056,63.395c-34.364,0.65-62.755-26.676-63.41-61.04c-0.243-12.756,1.99-25.649,7.236-38.506
				c9.193-22.533,26.651-40.552,44.252-57.359c73.439-70.122,292.578-147.167,246.689-177.017
				c-45.888-29.849-266.129-112.223-298.981-66.763c-32.852,45.459,21.483,6.967,34.734,60.881s-162.922,46.685-244.384,70.028
				c-13.45,3.854-28.368,7.608-40.961,1.511c-14.076-6.815-20.002-23.199-27.641-36.846
				c-40.912-73.091-176.986-25.648-176.986-25.648S916.958,986.36,890.608,1028.661z"/>
			<path style="fill:#91B3FA;" d="M1506.084,696.975c-19.778,36.871,39.041,36.274,44.892,77.704
				c52.95,5.77,74.696-77.713,127.061-87.456c29.552-5.499,58.207,15.675,74.266,41.086c16.059,25.41,23.55,55.246,37.161,82.047
				c30.498,60.051,93.47,102.315,160.599,107.785c14.605,1.19,30.699,0.256,41.693-9.432c31.914-28.123-13.744-80.955-1.882-121.805
				c13.554-46.68,80.863-39.598,126.357-56.718c12.548-4.722,109.057-30.474,110.609-43.791
				c2.752-23.609-42.021-38.638-92.107-51.518c-84.859-21.821-234.172-20.914-307.155-14.311
				C1730.481,629.352,1568.708,622.254,1506.084,696.975L1506.084,696.975z"/>
			<g>
				<path style="fill:#91B3FA;" d="M3125.344,2282.712c22.002-137.732,20.171-279.238-5.388-416.353
					c-6.818-36.578-22.779-80.183-59.613-85.448c-42.604-6.09-94.761,42.851-121.432,9.073c-11.774-14.91-7.075-36.619-0.407-54.406
					c17.589-46.914,45.123-90.071,80.255-125.792c21.825-22.191,46.797-41.862,63.603-68.06
					c35.945-56.032,10.713-137.912-40.161-180.848c-50.873-42.934-116.503,34.06-169.981,3.497
					c-53.478-30.564-55.142-104.71-65.193-165.48c-7.445-45.014-40.611-166.968-77.248-107.575
					c-36.637,59.393,48.87,295.824,145.106,409.158c11.608,13.671,24.426,28.981,23.446,46.888
					c-2.342,42.762-64.654,40.859-106.575,49.614c-51.891,10.839-131.424-16.953-87.532,73.469
					c23.149,47.689,133.723,112.961,104.011,144.876s-121.053,124.358-163.912,199.117c-42.859,74.76-63.63,167.855-31.31,247.738
					c32.32,79.883,129.503,135.044,208.834,101.392c37.13-15.751,77.6-48.498,112.114-27.63
					c31.256,18.897,26.644,64.257,25.098,100.748c-1.546,36.491,19.489,84.932,54.992,76.36
					c11.683-2.821,20.871-11.678,28.76-20.745C3092.762,2434.897,3113.34,2357.855,3125.344,2282.712z"/>
			</g>
			<ellipse style="opacity:0.18;fill:#FFFFFF;" cx="1831.439" cy="1763.505" rx="1054.27" ry="995.949"/>
			<g style="opacity:0.68;">
				<path style="fill:#FFFFFF;" d="M2278.869,1874.674c-0.322,219.448-15.311,439.34-53.785,655.681
					c-9.743,54.04-21.044,107.821-34.521,161.089c-13.513,53.245-29.123,106.026-48.243,157.619
					c-9.588,25.78-20.067,51.256-31.865,76.157c-11.804,24.885-24.909,49.23-40.131,72.318
					c-15.285,22.981-32.617,44.986-53.966,63.06c-10.673,8.979-22.381,16.933-35.244,22.756c-12.836,5.785-26.842,9.445-41.058,9.71
					c-14.2,0.422-28.416-2.38-41.502-7.657c-13.135-5.23-25.126-12.823-36.052-21.504c-21.859-17.505-39.572-39.267-55.13-62.065
					c-15.521-22.901-28.778-47.172-40.779-71.964c-11.952-24.829-22.579-50.246-32.265-75.991
					c-19.361-51.504-35.128-104.243-48.763-157.457c-13.612-53.23-25.027-106.988-34.856-161.011
					c-19.607-108.071-32.952-217.182-41.929-326.594c-8.911-109.427-13.332-219.203-13.796-328.99
					c-0.227-54.887,1.127-109.769,3.04-164.616c1.989-54.849,4.947-109.662,8.921-164.4
					c7.988-109.468,19.985-218.696,37.883-327.026c8.984-54.154,19.466-108.077,32.085-161.524
					c12.655-53.427,27.368-106.431,45.634-158.28c9.181-25.9,19.223-51.522,30.675-76.54c11.435-25.013,24.235-49.475,39.276-72.597
					c15.078-23.019,32.41-44.984,53.973-62.554c10.778-8.707,22.648-16.281,35.648-21.413c12.944-5.197,26.986-7.841,40.963-7.318
					c13.983,0.394,27.766,3.91,40.49,9.526c12.74,5.649,24.455,13.327,35.214,22.036c21.52,17.526,39.342,38.969,55.153,61.492
					c15.758,22.618,29.501,46.549,41.909,71.09c12.435,24.539,23.515,49.728,33.741,75.232
					c20.37,51.061,37.176,103.448,51.81,156.375c14.581,52.952,26.917,106.495,37.584,160.352
					C2261.185,1435.28,2278.304,1655.198,2278.869,1874.674z M2266.128,1874.674c0.151-109.435-4.059-218.896-13.201-327.949
					c-9.052-109.045-22.766-217.77-43.106-325.289c-10.17-53.751-22.003-107.196-36.072-160.05
					c-14.118-52.827-30.405-105.116-50.222-156.055c-9.95-25.445-20.744-50.568-32.88-75.025
					c-12.103-24.459-25.524-48.293-40.91-70.784c-15.433-22.394-32.838-43.671-53.74-60.989
					c-10.449-8.607-21.796-16.174-34.083-21.747c-12.274-5.509-25.504-9.1-38.955-9.457c-13.441-0.435-26.875,2.248-39.309,7.352
					c-12.484,5.049-23.933,12.481-34.366,21.058c-20.873,17.301-37.771,39.047-52.458,61.905
					c-14.657,22.958-27.138,47.302-38.268,72.213c-11.15,24.917-20.909,50.459-29.813,76.287
					c-17.72,51.706-31.92,104.6-44.066,157.92c-12.116,53.342-22.102,107.167-30.589,161.219
					c-16.915,108.128-27.946,217.144-34.977,326.363c-7.074,109.236-9.693,218.724-9.513,328.168
					c-0.2,109.431,3.547,218.889,11.771,328.017c8.29,109.11,20.938,217.943,39.822,325.709
					c9.46,53.873,20.508,107.471,33.731,160.52c13.25,53.03,28.614,105.566,47.521,156.793
					c9.457,25.606,19.844,50.863,31.516,75.493c11.718,24.594,24.669,48.628,39.773,71.203
					c15.127,22.475,32.341,43.81,53.253,60.752c10.449,8.407,21.832,15.691,34.162,20.68c12.287,5.008,25.494,7.775,38.721,7.337
					c13.227-0.329,26.257-3.81,38.333-9.337c12.096-5.566,23.236-13.214,33.455-21.923c20.455-17.525,37.301-39.124,52.162-61.79
					c14.815-22.774,27.608-46.888,39.132-71.578c11.514-24.705,21.747-50.027,31.102-75.669
					c18.654-51.322,33.853-103.901,46.968-156.964c13.076-53.085,23.992-106.708,33.363-160.594
					c18.736-107.793,31.233-216.638,39.526-325.75C2262.283,2093.594,2266.155,1984.127,2266.128,1874.674z"/>
				<path style="fill:#FFFFFF;" d="M2832.427,1874.674c-0.26,70.615-4.72,141.242-14.147,211.241
					c-9.447,69.984-23.466,139.37-42.406,207.419c-38.231,135.91-95.991,266.734-174.607,384.172
					c-39.31,58.657-83.872,113.866-133.683,163.944c-49.785,50.07-104.892,94.952-164.667,132.598
					c-59.784,37.576-124.351,67.746-191.995,88.225c-67.667,20.322-138.275,30.857-208.923,30.842
					c-70.648,0.066-141.276-10.42-208.972-30.697c-67.67-20.436-132.28-50.568-192.11-88.114
					c-59.824-37.617-114.993-82.468-164.844-132.523c-49.877-50.058-94.505-105.259-133.884-163.916
					c-78.741-117.45-136.599-248.318-174.971-384.283c-19.006-68.074-33.182-137.481-42.62-207.521
					c-9.391-70.055-13.812-140.731-14.029-211.389c0.253-70.658,4.707-141.33,14.134-211.375
					c9.47-70.03,23.69-139.422,42.731-207.475c38.448-135.92,96.375-266.719,175.156-384.074
					c39.392-58.614,84.026-113.767,133.9-163.774c49.848-49.994,104.988-94.813,164.801-132.337
					c59.821-37.469,124.414-67.427,191.995-87.857c67.598-20.299,138.137-30.822,208.713-30.804
					c70.572,0.03,141.095,10.597,208.67,30.937c67.552,20.473,132.105,50.479,191.873,87.979
					c59.765,37.557,114.842,82.404,164.627,132.416c49.808,50.025,94.374,105.186,133.693,163.801
					c78.658,117.343,136.49,248.096,174.797,383.965c18.969,68.028,33.025,137.399,42.508,207.373
					C2827.631,1733.437,2832.127,1804.059,2832.427,1874.674z M2817.822,1874.674c-0.043-69.987-4.247-140.002-13.375-209.406
					c-9.148-69.391-22.832-138.203-41.387-205.697c-37.117-134.886-93.148-265.082-170.245-382.11
					c-38.527-58.455-82.291-113.532-131.307-163.564c-49.016-49.976-103.216-95.059-162.359-132.633
					c-59.163-37.447-123.053-67.647-190.072-88.097c-67.049-20.264-137.02-30.834-207.079-30.946
					c-70.063,0.158-140.021,10.775-207.043,31.079c-66.993,20.495-130.837,50.738-189.95,88.219
					c-59.091,37.605-113.231,82.718-162.185,132.712c-48.947,50.048-92.641,105.135-131.103,163.59
					c-76.972,117.015-132.904,247.166-169.88,382c-36.841,134.993-54.693,274.974-54.666,414.853
					c0.043,139.879,17.964,279.844,54.883,414.793c37.048,134.793,93.052,264.873,170.067,381.794
					c38.471,58.41,82.172,113.45,131.116,163.447c48.95,49.933,103.061,95.013,162.146,132.526
					c59.097,37.403,122.931,67.474,189.832,87.961c66.927,20.327,136.793,30.982,206.783,31.189
					c69.987-0.158,139.869-10.76,206.826-31.044c66.927-20.444,130.801-50.476,189.95-87.851
					c59.13-37.482,113.304-82.531,162.32-132.448c49.01-49.979,92.78-105.01,131.32-163.421
					c77.136-116.933,133.239-247.059,170.429-381.903c18.591-67.476,32.308-136.272,41.492-205.653
					C2813.5,2014.672,2817.74,1944.661,2817.822,1874.674z"/>
				<path style="fill:#FFFFFF;" d="M813.912,1392.432l280.025-1.768l280.025-1.011l560.046-0.81l560.049,0.893l280.025,1.098
					l280.021,1.915c0.358,0.002,0.644,0.293,0.641,0.649c-0.003,0.352-0.289,0.638-0.641,0.639l-280.021,1.915l-280.025,1.098
					l-560.049,0.892l-560.046-0.81l-280.025-1.011l-280.025-1.768c-0.529-0.003-0.956-0.436-0.953-0.966
					C812.962,1392.859,813.39,1392.435,813.912,1392.432z"/>
				<path style="fill:#FFFFFF;" d="M1138.775,923.415l198.809-1.773l198.809-1.004c66.266-0.429,132.536-0.383,198.806-0.514
					l198.809-0.297l397.618,0.894l198.809,1.096l198.809,1.915c0.355,0.003,0.641,0.296,0.638,0.651
					c-0.003,0.352-0.289,0.636-0.638,0.639l-198.809,1.915l-198.809,1.098l-397.618,0.893l-198.809-0.297
					c-66.27-0.132-132.539-0.086-198.806-0.513l-198.809-1.006l-198.809-1.773c-0.533-0.005-0.957-0.439-0.953-0.97
					C1137.828,923.842,1138.252,923.42,1138.775,923.415z"/>
				<path style="fill:#FFFFFF;" d="M716.603,1861.447l304.352-1.767l304.349-1.012l608.704-0.81l608.704,0.892l304.352,1.099
					l304.352,1.913c0.355,0.002,0.641,0.292,0.641,0.649c-0.003,0.353-0.289,0.638-0.641,0.641l-304.352,1.913l-304.352,1.098
					l-608.704,0.894l-608.704-0.812l-304.349-1.011l-304.352-1.767c-0.532-0.003-0.96-0.436-0.956-0.966
					C715.65,1861.876,716.077,1861.45,716.603,1861.447z"/>
				<path style="fill:#FFFFFF;" d="M813.912,2330.462l280.025-1.767l280.025-1.011l560.046-0.812l560.049,0.893l280.025,1.1
					l280.021,1.913c0.358,0.003,0.644,0.294,0.641,0.649c-0.003,0.354-0.289,0.638-0.641,0.641l-280.021,1.913l-280.025,1.099
					l-560.049,0.893l-560.046-0.81l-280.025-1.012l-280.025-1.767c-0.529-0.003-0.956-0.436-0.953-0.966
					C812.962,2330.891,813.39,2330.467,813.912,2330.462z"/>
				<path style="fill:#FFFFFF;" d="M2769.313,2803.803H1178.844c-1.86,0-3.366-1.505-3.366-3.366c0-1.86,1.505-3.366,3.366-3.366
					h1590.469c1.86,0,3.366,1.506,3.366,3.366C2772.678,2802.298,2771.173,2803.803,2769.313,2803.803z"/>
			</g>
		</g>
		<g>
			<path style="fill:#FFFFFF;" d="M1935.49,1648.696c-190.559-34.304-373.654-111.456-516.166-219.308l12.197-7.241
				c170.316,128.891,399.688,213.033,629.26,230.939c229.674,17.878,458.402-30.686,627.54-133.236
				c74.183-44.979,132.209-96.79,172.477-153.985l15.975,6.381c-41.086,58.359-100.24,111.185-175.823,157.015
				c-172.271,104.451-405.398,153.906-639.606,135.671C2019.266,1661.658,1977.199,1656.204,1935.49,1648.696z"/>
			<path style="fill:#FFFFFF;" d="M2861.621,1741.976c-34.516-57.912-53.227-112.869-55.84-164.321
				c-6.573-129.394,93.411-190.525,94.421-191.127l5.956,9.993c-0.976,0.582-97.493,59.719-91.15,183.828
				c4.305,84.18,54.122,178.854,148.106,281.391l-5.104,6.851C2918.103,1825.047,2885.938,1782.777,2861.621,1741.976z"/>
			<path style="fill:#FFFFFF;" d="M1368.891,1408.894c-7.211,2.398-13.853,2.357-19.333-0.341l5.692-7.112
				c10.864,5.353,27.887-10.126,31.193-13.281c73.094-69.801,125.482-147.343,151.503-224.237
				c28.753-84.981,25.267-169.64-9.816-238.388l8.972-3.978c35.88,70.308,39.474,156.808,10.119,243.563
				c-26.465,78.216-79.678,157.016-153.89,227.879C1385.024,1400.936,1376.631,1406.321,1368.891,1408.894z"/>
			<path style="fill:#FFFFFF;" d="M2708.8,2300.744l-10.863-1.023c1.721-40.526,17.673-78,34.653-112.459
				c44.123-89.555,99.531-171.937,164.684-244.846c24.675-27.619,52.244-55.533,86.624-72.645l4.931,10.576
				c-32.838,16.349-59.557,43.443-83.541,70.287c-64.501,72.183-119.349,153.739-163.03,242.396
				C2725.84,2226.342,2710.426,2262.449,2708.8,2300.744z"/>
			
				<linearGradient id="SVGID_00000128456618374553297420000015341041077850379416_" gradientUnits="userSpaceOnUse" x1="1412.1619" y1="1292.9775" x2="1037.4666" y2="2502.7051">
				<stop  offset="0" style="stop-color:#FE7062"/>
				<stop  offset="1" style="stop-color:#FF928E"/>
			</linearGradient>
			
				<circle style="fill:url(#SVGID_00000128456618374553297420000015341041077850379416_);" cx="1384.253" cy="1383.084" r="81.878"/>
			
				<linearGradient id="SVGID_00000168077910042478466390000004375367935167646109_" gradientUnits="userSpaceOnUse" x1="2905.9275" y1="1306.0763" x2="2531.2322" y2="2515.8037">
				<stop  offset="0" style="stop-color:#FE7062"/>
				<stop  offset="1" style="stop-color:#FF928E"/>
			</linearGradient>
			
				<circle style="fill:url(#SVGID_00000168077910042478466390000004375367935167646109_);" cx="2876.708" cy="1400.414" r="81.878"/>
			
				<linearGradient id="SVGID_00000080189086924228359000000005819617450252095134_" gradientUnits="userSpaceOnUse" x1="1508.5974" y1="878.4706" x2="1133.902" y2="2088.1985">
				<stop  offset="0" style="stop-color:#FE7062"/>
				<stop  offset="1" style="stop-color:#FF928E"/>
			</linearGradient>
			<circle style="fill:url(#SVGID_00000080189086924228359000000005819617450252095134_);" cx="1494.597" cy="923.673" r="81.878"/>
			
				<linearGradient id="SVGID_00000074439843228940614120000006767517472157480073_" gradientUnits="userSpaceOnUse" x1="2742.9802" y1="2234.854" x2="2368.2847" y2="3444.582">
				<stop  offset="0" style="stop-color:#FE7062"/>
				<stop  offset="1" style="stop-color:#FF928E"/>
			</linearGradient>
			
				<circle style="fill:url(#SVGID_00000074439843228940614120000006767517472157480073_);" cx="2720.751" cy="2306.623" r="81.878"/>
			
				<linearGradient id="SVGID_00000086680138711509131130000017557159258790532771_" gradientUnits="userSpaceOnUse" x1="3010.5566" y1="1790.5759" x2="2635.8613" y2="3000.304">
				<stop  offset="0" style="stop-color:#FE7062"/>
				<stop  offset="1" style="stop-color:#FF928E"/>
			</linearGradient>
			
				<circle style="fill:url(#SVGID_00000086680138711509131130000017557159258790532771_);" cx="2988.327" cy="1862.344" r="81.878"/>
		</g>
		<g>
			<g>
				<g>
					<g>
						
							<linearGradient id="SVGID_00000118362157740079897340000009790335070386818460_" gradientUnits="userSpaceOnUse" x1="1560.7532" y1="1675.4114" x2="2097.249" y2="1860.4099" gradientTransform="matrix(0.994 0.1092 -0.1092 0.994 466.3754 45.8821)">
							<stop  offset="0" style="stop-color:#A22B25"/>
							<stop  offset="1" style="stop-color:#C0423C"/>
						</linearGradient>
						<path style="fill:url(#SVGID_00000118362157740079897340000009790335070386818460_);" d="M2285.575,1960.461
							c-31.818-21.926-90.304,39.125-90.304,39.125s-153.235,8.403-200.089-8.478c-46.853-16.881-39.613-201.237-39.613-201.237
							s-148.591-73.985-132.751,164.223c13.745,206.694,367.99,86.1,367.99,86.1s88.906,13.526,112.585-2.301
							C2327.073,2022.065,2317.392,1982.387,2285.575,1960.461z"/>
						
							<linearGradient id="SVGID_00000085239039918412987550000011982370305229676714_" gradientUnits="userSpaceOnUse" x1="1593.7603" y1="1586.3053" x2="2127.9202" y2="1770.4984" gradientTransform="matrix(0.994 0.1092 -0.1092 0.994 466.3754 45.8821)">
							<stop  offset="0" style="stop-color:#A22B25"/>
							<stop  offset="1" style="stop-color:#C0423C"/>
						</linearGradient>
						<path style="fill:url(#SVGID_00000085239039918412987550000011982370305229676714_);" d="M2204.656,1991.646
							c0,0,15.149-39.633,48.427-45.425c33.279-5.792,32.25,0.464,26.641,8.916
							C2274.115,1963.59,2215.659,2011.577,2204.656,1991.646z"/>
						
							<linearGradient id="SVGID_00000112603561323653408700000015533768752983764362_" gradientUnits="userSpaceOnUse" x1="2524.54" y1="1260.6581" x2="2376.4399" y2="1435.6853">
							<stop  offset="0" style="stop-color:#4F52FF"/>
							<stop  offset="1" style="stop-color:#4042E2"/>
						</linearGradient>
						<path style="fill:url(#SVGID_00000112603561323653408700000015533768752983764362_);" d="M1995.183,1991.109
							c-46.854-16.882-9.584-212.188-9.584-212.188s-172.603-63.36-162.781,175.173c4.531,110.006,124.493,130.641,217.929,121.071
							c4.664-31.125,3.249-45.138,13.855-75.039C2047.673,1998.876,2000.082,1992.873,1995.183,1991.109z"/>
					</g>
					<g>
						
							<linearGradient id="SVGID_00000083088179181232037550000010915136968289214907_" gradientUnits="userSpaceOnUse" x1="-2811.5627" y1="1370.7068" x2="-2509.637" y2="621.9324" gradientTransform="matrix(0.8608 0.5089 -0.5089 0.8608 4884.1777 2577.5925)">
							<stop  offset="0" style="stop-color:#09005D"/>
							<stop  offset="1" style="stop-color:#1A0F91"/>
						</linearGradient>
						<path style="fill:url(#SVGID_00000083088179181232037550000010915136968289214907_);" d="M2097.843,1901.486l17.956,204.906
							c1.184,13.509,13.17,23.494,26.685,22.231l135.235-12.64c14.603-1.365,24.681-15.185,21.509-29.495l-46.728-210.79
							c-2.83-12.767-15.227-21.068-28.115-18.825l-106.464,18.523C2105.454,1877.565,2096.739,1888.889,2097.843,1901.486z"/>
						
							<ellipse transform="matrix(0.9685 -0.2489 0.2489 0.9685 -418.3214 607.481)" style="opacity:0.26;fill:#FFFFFF;" cx="2193.424" cy="1958.2" rx="34.325" ry="34.325"/>
						<path style="opacity:0.26;fill:#FFFFFF;" d="M2151.053,2091.075l-0.681-6.625c-0.045-0.437,0.276-0.831,0.713-0.876
							l106.942-10.998c0.437-0.045,0.832,0.276,0.876,0.713l0.681,6.625c0.045,0.437-0.276,0.832-0.713,0.876l-106.942,10.998
							C2151.493,2091.833,2151.098,2091.512,2151.053,2091.075z"/>
						<path style="opacity:0.26;fill:#FFFFFF;" d="M2149.017,2071.273l-0.681-6.625c-0.045-0.437,0.276-0.831,0.713-0.876
							l106.942-10.998c0.437-0.045,0.831,0.276,0.876,0.713l0.681,6.625c0.045,0.437-0.276,0.832-0.713,0.876l-106.942,10.998
							C2149.456,2072.031,2149.062,2071.71,2149.017,2071.273z"/>
					</g>
					
						<linearGradient id="SVGID_00000011020806551658242070000001137722100699177120_" gradientUnits="userSpaceOnUse" x1="2027.7386" y1="1764.3662" x2="2353.1377" y2="2040.6481" gradientTransform="matrix(0.994 0.1092 -0.1092 0.994 466.3754 45.8821)">
						<stop  offset="0" style="stop-color:#A22B25"/>
						<stop  offset="1" style="stop-color:#C0423C"/>
					</linearGradient>
					<path style="fill:url(#SVGID_00000011020806551658242070000001137722100699177120_);" d="M2280.924,1961.672
						c0,0-37.321-6.442-39.347,17.323c-2.026,23.766-8.027,57.013,12.049,60.695c20.075,3.682,57.103,11.585,63.443-18.888
						C2323.41,1990.328,2285.599,1951.07,2280.924,1961.672z"/>
				</g>
				
					<linearGradient id="SVGID_00000027589513915309031360000009389866547913200803_" gradientUnits="userSpaceOnUse" x1="2063.2324" y1="1316.3767" x2="1157.8859" y2="2317.2859">
					<stop  offset="0" style="stop-color:#E1473D"/>
					<stop  offset="1" style="stop-color:#E9605A"/>
				</linearGradient>
				<path style="fill:url(#SVGID_00000027589513915309031360000009389866547913200803_);" d="M1856.651,1601.476
					c-10.652,8.313-136.372,18.35-229.557,38.416c-67.591,14.555-113.14,77.952-105.354,146.653l11.14,98.302
					c1.392,12.28,14.365,19.624,25.61,14.497l263.924-120.334L1856.651,1601.476z"/>
				
					<linearGradient id="SVGID_00000137121972407302056080000012362564075573914290_" gradientUnits="userSpaceOnUse" x1="1846.2147" y1="1670.3646" x2="1266.9349" y2="2709.3318">
					<stop  offset="0" style="stop-color:#FF928E"/>
					<stop  offset="1" style="stop-color:#FE7062"/>
				</linearGradient>
				<path style="fill:url(#SVGID_00000137121972407302056080000012362564075573914290_);" d="M1839.733,2206.457h-267.352
					c-8.448,0-15.297-6.849-15.297-15.297v-520.797c0-12.507,10.139-22.647,22.647-22.647h260.002V2206.457z"/>
				<g>
					
						<linearGradient id="SVGID_00000011008378076513424240000011015439423894643853_" gradientUnits="userSpaceOnUse" x1="-4843.4526" y1="2857.0127" x2="-4685.2578" y2="1008.1096" gradientTransform="matrix(-0.7539 -0.657 -0.657 0.7539 -766.4053 -1937.2426)">
						<stop  offset="0" style="stop-color:#A22B25"/>
						<stop  offset="1" style="stop-color:#C0423C"/>
					</linearGradient>
					<path style="fill:url(#SVGID_00000011008378076513424240000011015439423894643853_);" d="M1691.599,2585.913l-29.937,49.006
						c0,0-238.767,224.955-328.875,319.64c-14.128,14.845-23.426,33.578-26.788,53.793l-17.535,105.43l-52.168-156.935
						l11.492-10.204l36.427-13.614l217.233-295.787c12.76-17.376,30.258-30.709,50.398-38.402l58.57-22.373L1691.599,2585.913z"/>
					
						<linearGradient id="SVGID_00000104708428316101870900000002460338742915035821_" gradientUnits="userSpaceOnUse" x1="1397.9426" y1="3031.1423" x2="1776.5883" y2="2011.3229">
						<stop  offset="0" style="stop-color:#09005D"/>
						<stop  offset="1" style="stop-color:#1A0F91"/>
					</linearGradient>
					<path style="fill:url(#SVGID_00000104708428316101870900000002460338742915035821_);" d="M1311.84,2874.199
						c4.947,34.041,28.014,49.917,55.941,60.921l305.436-307.064l160.253-381.088l36.658-225.88l-65.847-16.48
						c-149.501,28.982-169.026,318.239-200.757,574.491C1507.815,2577.377,1412.687,2729.623,1311.84,2874.199z"/>
					
						<linearGradient id="SVGID_00000002364192139724863410000010483206632991363229_" gradientUnits="userSpaceOnUse" x1="1235.7997" y1="3166.1714" x2="1313.2153" y2="2893.533">
						<stop  offset="0" style="stop-color:#09005D"/>
						<stop  offset="1" style="stop-color:#1A0F91"/>
					</linearGradient>
					<path style="fill:url(#SVGID_00000002364192139724863410000010483206632991363229_);" d="M1280.08,2930.638
						c0,0-74.007,11.884-55.964,67.214c18.042,55.33,45.707,157.571,81.792,137.123c36.085-20.448-5.256-133.79,12.934-161.943
						C1284.388,2946.103,1280.08,2930.638,1280.08,2930.638z"/>
				</g>
				<g>
					
						<linearGradient id="SVGID_00000167388126351365664290000000958326137803907255_" gradientUnits="userSpaceOnUse" x1="-4038.8499" y1="3626.5803" x2="-3880.6541" y2="1777.666" gradientTransform="matrix(-1 0 0 1 -2140.7312 0)">
						<stop  offset="0" style="stop-color:#A22B25"/>
						<stop  offset="1" style="stop-color:#C0423C"/>
					</linearGradient>
					<path style="fill:url(#SVGID_00000167388126351365664290000000958326137803907255_);" d="M1880.087,2564.575l9.625,56.614
						c0,0-32.229,326.46-37.962,457.043c-0.9,20.473,4.397,40.705,15.142,58.155l56.043,91.007l-142.43-84.047l-2.835-17.381
						l23.315-32.057l-30.539-365.715c-1.794-21.484,2.639-43.031,12.769-62.062l29.46-55.344L1880.087,2564.575z"/>
					
						<linearGradient id="SVGID_00000020378196714591432090000004882061261157778085_" gradientUnits="userSpaceOnUse" x1="1641.0515" y1="3121.4048" x2="2019.699" y2="2101.5801">
						<stop  offset="0" style="stop-color:#09005D"/>
						<stop  offset="1" style="stop-color:#1A0F91"/>
					</linearGradient>
					<path style="fill:url(#SVGID_00000020378196714591432090000004882061261157778085_);" d="M1973.457,2021.088
						c32.887,61.271-3.195,234.966-82.071,590.749l-36.437,410.445c-23.125,18.973-47.235,25.573-72.379,19.18
						c-23.653-204.743-32.155-352.427,23.226-437.177l13.169-340.492l50.194-233.736L1973.457,2021.088z"/>
					
						<linearGradient id="SVGID_00000025432966125071761060000018147381729004422034_" gradientUnits="userSpaceOnUse" x1="2005.0682" y1="2932.2832" x2="1772.8323" y2="3336.1719">
						<stop  offset="0" style="stop-color:#09005D"/>
						<stop  offset="1" style="stop-color:#1A0F91"/>
					</linearGradient>
					<path style="fill:url(#SVGID_00000025432966125071761060000018147381729004422034_);" d="M1790.657,3108.108
						c0,0-62.766,64.698-15.069,79.36c47.697,14.661,171.179,63.772,178.731,39.926c9.427-29.769-99.446-119.285-99.446-119.285
						C1836.17,3117.822,1803.377,3119.287,1790.657,3108.108z"/>
				</g>
				
					<linearGradient id="SVGID_00000182489258319516153600000010818613485996909454_" gradientUnits="userSpaceOnUse" x1="2179.8562" y1="1504.611" x2="2610.6914" y2="1060.3121">
					<stop  offset="0" style="stop-color:#4F52FF"/>
					<stop  offset="1" style="stop-color:#4042E2"/>
				</linearGradient>
				<path style="fill:url(#SVGID_00000182489258319516153600000010818613485996909454_);" d="M1804.281,2004.608
					c48.704-206.381-54.068-360.557-54.068-360.557c58.614-56.263,149.634-59.984,191.039-58.387
					c14.286,0.551,27.946,5.772,39.049,14.777c32.925,26.704,100.524,89.744,88.296,148.734
					c-9.412,45.396-95.14,271.913-95.14,271.913S1894.185,2058.605,1804.281,2004.608z"/>
				
					<linearGradient id="SVGID_00000071537374045282096030000014495781803566855842_" gradientUnits="userSpaceOnUse" x1="1939.1417" y1="1201.0398" x2="1902.1162" y2="1695.8297">
					<stop  offset="0" style="stop-color:#A22B25"/>
					<stop  offset="1" style="stop-color:#C0423C"/>
				</linearGradient>
				<path style="fill:url(#SVGID_00000071537374045282096030000014495781803566855842_);" d="M1896.294,1436.383l-39.644,165.094
					c-3.791,15.667,10.428,20.552,26.376,22.889c37.487,5.494,65.87-8.698,70.549-35.146c0.409-2.313,1.705-4.377,2.026-6.704
					l17.012-123.335c1.35-9.785-3.94-19.282-12.971-23.286l-32.828-14.557C1914.175,1415.732,1899.546,1422.944,1896.294,1436.383z"
					/>
				<g>
					
						<linearGradient id="SVGID_00000136371079927194230210000010446594151119767990_" gradientUnits="userSpaceOnUse" x1="1893.3114" y1="1103.4979" x2="1956.1415" y2="1431.1124">
						<stop  offset="0" style="stop-color:#A22B25"/>
						<stop  offset="1" style="stop-color:#C0423C"/>
					</linearGradient>
					<path style="fill:url(#SVGID_00000136371079927194230210000010446594151119767990_);" d="M1933.263,1302.388
						c0,0,55.767,15.157,101.933,86.554c46.166,71.398,24.127,110.216-8.871,119.591c-32.998,9.375-83.422,15.432-143.3-26.633
						C1823.146,1439.835,1861.112,1285.238,1933.263,1302.388z"/>
					
						<linearGradient id="SVGID_00000018204738721355958810000005552940366619665839_" gradientUnits="userSpaceOnUse" x1="1794.4941" y1="1523.0574" x2="1939.2281" y2="1203.2959">
						<stop  offset="0" style="stop-color:#09005D"/>
						<stop  offset="1" style="stop-color:#1A0F91"/>
					</linearGradient>
					<path style="fill:url(#SVGID_00000018204738721355958810000005552940366619665839_);" d="M1913.312,1436.367
						c0,0-54.862-106.169,43.853-120.837l25.466,13.124c0,0-8.954-51.337-72.495-72.819c-63.54-21.482-111.965,1.394-126.478,85.051
						c-14.514,83.657,7.315,133.465,54.661,166.161c47.346,32.697,58.848-13.176,58.848-13.176s-27.808-32.806-21.054-53.277
						c6.755-20.472,31.443-0.198,31.443-0.198L1913.312,1436.367z"/>
					
						<linearGradient id="SVGID_00000145749154303275835790000011109097152900532920_" gradientUnits="userSpaceOnUse" x1="1741.8082" y1="1277.0771" x2="1563.416" y2="1832.4506">
						<stop  offset="0" style="stop-color:#09005D"/>
						<stop  offset="1" style="stop-color:#1A0F91"/>
					</linearGradient>
					<path style="fill:url(#SVGID_00000145749154303275835790000011109097152900532920_);" d="M1796.768,1425.268
						c0,0-191.71-58.981-223.266,140.985c-31.555,199.966-53.352,264.067-100.886,229.587c0,0,7.828,74.706,99.096,41.316
						C1808.615,1750.484,1664.431,1472.967,1796.768,1425.268z"/>
				</g>
			</g>
			<g>
				
					<linearGradient id="SVGID_00000013162273325551214190000001968397411251676060_" gradientUnits="userSpaceOnUse" x1="2419.5029" y1="1402.2935" x2="2207.4504" y2="1536.9298">
					<stop  offset="0" style="stop-color:#4F52FF"/>
					<stop  offset="1" style="stop-color:#4042E2"/>
				</linearGradient>
				<path style="fill:url(#SVGID_00000013162273325551214190000001968397411251676060_);" d="M1564.245,2092.947
					c-55.29-236.021,185.968-448.896,185.968-448.896c57.512,13.173,72.248,51.072,56.766,106.437
					c-113.533,106.437-156.108,227.066-164.828,328.549C1626.767,2074.556,1589.722,2067.477,1564.245,2092.947z"/>
				
					<linearGradient id="SVGID_00000170971256573900958650000007254329329883936662_" gradientUnits="userSpaceOnUse" x1="834.8645" y1="2102.0493" x2="723.0972" y2="2316.9866" gradientTransform="matrix(-1 0 0 1 2436.9724 0)">
					<stop  offset="0" style="stop-color:#A22B25"/>
					<stop  offset="1" style="stop-color:#C0423C"/>
				</linearGradient>
				<path style="fill:url(#SVGID_00000170971256573900958650000007254329329883936662_);" d="M1642.152,2079.037
					c-10.783,44.548-9.649,77.785-8.009,93.654c0.586,5.67,3.428,10.297,9.427,10.57c2.786,0.127,5.638-0.286,8.327,0.455
					s5.235,3.175,4.817,5.932c-0.199,1.31-1.023,2.447-1.328,3.736c-0.6,2.538,0.965,5.173,3.07,6.712s4.68,2.255,7.136,3.132
					c9.746,3.481,20.001,9.808,29.194,14.554c2.694,1.391,3.164,5.062,2.716,8.061c-3.971,26.625-41.25,24.093-59.089,14.875
					c-10.89-5.628-20.773-14.676-27.449-24.992c-27.387-42.318-41.546-83.698-46.719-122.779
					C1589.722,2067.477,1626.767,2074.556,1642.152,2079.037z"/>
			</g>
			
				<linearGradient id="SVGID_00000132792861862481251960000002447237399238510007_" gradientUnits="userSpaceOnUse" x1="1843.3143" y1="1642.4426" x2="1712.0436" y2="2103.5745">
				<stop  offset="0" style="stop-color:#E1473D"/>
				<stop  offset="1" style="stop-color:#E9605A"/>
			</linearGradient>
			<path style="fill:url(#SVGID_00000132792861862481251960000002447237399238510007_);" d="M1773.782,1622.294
				c89.309,136.953-17.292,404.979-45.184,415.592c122.432-24.638,168.059-248.184,99.813-438.382
				C1808.371,1597.995,1787.873,1604.681,1773.782,1622.294z"/>
		</g>
		<g>
			<g>
				<g>
					
						<linearGradient id="SVGID_00000038396360214835577380000003912106221511900813_" gradientUnits="userSpaceOnUse" x1="2241.834" y1="-4720.6538" x2="2751.3601" y2="-4544.9551" gradientTransform="matrix(0.0023 1 -1 0.0023 -3390.8447 -342.5823)">
						<stop  offset="0" style="stop-color:#FEBBBA"/>
						<stop  offset="1" style="stop-color:#FF928E"/>
					</linearGradient>
					<path style="fill:url(#SVGID_00000038396360214835577380000003912106221511900813_);" d="M1335.08,2308.429
						c10.381-20.87,1.623-45.782-16.17-64.396c-12.303-12.871-18.718-30.311-17.888-48.097
						c3.816-81.81-34.431-333.007-72.793-363.689c-66.793-53.421,17.792,393.905,36.654,406.944
						c21.051,5.77,4.442,94.844-5.717,109.362C1242.28,2372.685,1310.71,2357.422,1335.08,2308.429z"/>
					
						<linearGradient id="SVGID_00000134210766000201408800000000249519728062505876_" gradientUnits="userSpaceOnUse" x1="1202.2828" y1="1674.1272" x2="1302.8105" y2="2386.9636">
						<stop  offset="0" style="stop-color:#E1473D"/>
						<stop  offset="1" style="stop-color:#E9605A"/>
					</linearGradient>
					<path style="fill:url(#SVGID_00000134210766000201408800000000249519728062505876_);" d="M1225.921,2124.338
						c20.997-24.617,43.254-42.68,68.219-46.653c4.482-0.713,7.634-4.791,7.29-9.317l-26.888-354.293l-119.543,97.205
						L1225.921,2124.338z"/>
					<g>
						
							<linearGradient id="SVGID_00000119818320140497849160000004423728433506561430_" gradientUnits="userSpaceOnUse" x1="1503.439" y1="2027.9166" x2="968.2048" y2="2886.3093">
							<stop  offset="0" style="stop-color:#09005D"/>
							<stop  offset="1" style="stop-color:#1A0F91"/>
						</linearGradient>
						<path style="fill:url(#SVGID_00000119818320140497849160000004423728433506561430_);" d="M1360.051,2232.693l-179.403,86.815
							c-11.828,5.723-16.744,20.017-10.946,31.823l58.011,118.132c6.264,12.756,22.251,17.126,34.12,9.325l174.825-114.899
							c10.589-6.959,13.838-21.046,7.37-31.946l-53.434-90.047C1384.337,2231.35,1371.08,2227.356,1360.051,2232.693z"/>
						
							<ellipse transform="matrix(0.8169 -0.5768 0.5768 0.8169 -1103.3385 1202.0773)" style="opacity:0.26;fill:#FFFFFF;" cx="1341.595" cy="2338.79" rx="33.259" ry="33.259"/>
						<path style="opacity:0.26;fill:#FFFFFF;" d="M1206.682,2346.154l5.722-2.876c0.392-0.197,0.875-0.038,1.073,0.355
							l46.76,93.027c0.197,0.393,0.038,0.875-0.355,1.073l-5.722,2.876c-0.393,0.197-0.875,0.038-1.073-0.355l-46.76-93.027
							C1206.129,2346.833,1206.289,2346.351,1206.682,2346.154z"/>
						<path style="opacity:0.26;fill:#FFFFFF;" d="M1223.915,2337.491l5.722-2.876c0.393-0.198,0.875-0.038,1.073,0.355
							l46.761,93.027c0.197,0.393,0.037,0.875-0.355,1.073l-5.722,2.876c-0.393,0.197-0.875,0.038-1.073-0.355l-46.76-93.027
							C1223.363,2338.171,1223.523,2337.688,1223.915,2337.491z"/>
					</g>
					
						<linearGradient id="SVGID_00000082334790464222582620000001006857617636073143_" gradientUnits="userSpaceOnUse" x1="3092.7371" y1="-1380.6981" x2="3645.1277" y2="-1190.2186" gradientTransform="matrix(0.4764 0.8792 0.8792 -0.4764 698.6832 -1383.6906)">
						<stop  offset="0" style="stop-color:#FEBBBA"/>
						<stop  offset="1" style="stop-color:#FF928E"/>
					</linearGradient>
					<path style="fill:url(#SVGID_00000082334790464222582620000001006857617636073143_);" d="M1272.616,2230.523
						c0,0-32.038,29.981-24.592,64.108c7.447,34.129,13.036,30.702,18.939,22.031
						C1272.868,2307.992,1295.998,2233.278,1272.616,2230.523z"/>
				</g>
			</g>
			
				<linearGradient id="SVGID_00000001626002924247138250000015376225041684902039_" gradientUnits="userSpaceOnUse" x1="2002.6332" y1="1047.8694" x2="1666.042" y2="1313.776">
				<stop  offset="0" style="stop-color:#09005D"/>
				<stop  offset="1" style="stop-color:#1A0F91"/>
			</linearGradient>
			<path style="fill:url(#SVGID_00000001626002924247138250000015376225041684902039_);" d="M1031.161,2244.508H795.462
				c-28.356,0-51.343-22.987-51.343-51.343c-48.777-171.024-26.321-369.34,31.145-588.312c7.458-28.418,33.209-48.208,62.59-48.208
				h193.308V2244.508z"/>
			
				<linearGradient id="SVGID_00000070830197591030258070000008589003436470471313_" gradientUnits="userSpaceOnUse" x1="756.3602" y1="1717.6157" x2="1291.5399" y2="1522.3925">
				<stop  offset="0" style="stop-color:#09005D"/>
				<stop  offset="1" style="stop-color:#1A0F91"/>
			</linearGradient>
			<path style="fill:url(#SVGID_00000070830197591030258070000008589003436470471313_);" d="M841.391,1541.531
				c-37.911,0-71.06,25.554-80.707,62.218l-38.329,145.668c-8.374,31.823,16.523,63.175,56.029,70.556l72.628,13.568
				l233.006-324.622L841.391,1541.531z"/>
			<g>
				
					<linearGradient id="SVGID_00000090285956973769224080000004124568432165186486_" gradientUnits="userSpaceOnUse" x1="1476.5189" y1="1029.2689" x2="1294.7594" y2="1769.7692">
					<stop  offset="0" style="stop-color:#4F52FF"/>
					<stop  offset="1" style="stop-color:#4042E2"/>
				</linearGradient>
				<path style="fill:url(#SVGID_00000090285956973769224080000004124568432165186486_);" d="M1209.669,2165.493l-223.404-8.047
					c0,0-50.786,73.339-51.992,90.842c-0.638,9.248-1.102,18.069-1.425,26.535l-40.731,369.636
					c-1.323,11.997-5.244,23.563-11.492,33.89l-152.855,261.471c-5.505,8.525-18.326,23.316-12.028,31.274
					c7.253,9.168,6.067,25.574,22.854,32.477c6.32,2.598,35.822-27.019,40.324-32.157l228.186-260.425
					c7.508-8.567,12.859-18.803,15.606-29.857l65.297-242.949c41.367,121.649,90.447,524.182,99.243,605.081
					c0.92,8.47,4.96,98.205,13.447,98.959c15.895,1.413,30.575-3.5,43.827-5.459c8.992-1.334,5.946-69.366,6.531-78.438
					C1283.139,2560.764,1209.669,2165.493,1209.669,2165.493z"/>
				
					<linearGradient id="SVGID_00000081642240016448549130000008900514278332984206_" gradientUnits="userSpaceOnUse" x1="860.5036" y1="2392.9746" x2="643.994" y2="3340.8059">
					<stop  offset="0" style="stop-color:#09005D"/>
					<stop  offset="1" style="stop-color:#1A0F91"/>
				</linearGradient>
				<path style="fill:url(#SVGID_00000081642240016448549130000008900514278332984206_);" d="M715.174,2960.412
					c0,0-74.007,11.884-55.964,67.214c18.042,55.33,45.707,157.571,81.792,137.123c36.085-20.448-19.531-140.116,9.194-166.727
					C715.743,2971.093,715.174,2960.412,715.174,2960.412z"/>
				
					<linearGradient id="SVGID_00000163056924741110101510000005005419506388845230_" gradientUnits="userSpaceOnUse" x1="1056.2162" y1="2995.3516" x2="1679.9794" y2="3619.1147">
					<stop  offset="0" style="stop-color:#09005D"/>
					<stop  offset="1" style="stop-color:#1A0F91"/>
				</linearGradient>
				<path style="fill:url(#SVGID_00000163056924741110101510000005005419506388845230_);" d="M1198.078,3135.881
					c0,0-48.114,69.764,0,82.995c48.113,13.23,144.339,47.784,170.801,21.487c26.462-26.298-122.249-109.095-122.249-109.095
					C1228.225,3141.535,1211.125,3146.674,1198.078,3135.881z"/>
			</g>
			<g>
				
					<linearGradient id="SVGID_00000089570237734417304440000016801793602056981674_" gradientUnits="userSpaceOnUse" x1="744.2748" y1="2335.9011" x2="1074.1344" y2="1851.2103">
					<stop  offset="0" style="stop-color:#FF928E"/>
					<stop  offset="1" style="stop-color:#FE7062"/>
				</linearGradient>
				<path style="fill:url(#SVGID_00000089570237734417304440000016801793602056981674_);" d="M1312.87,1739.522
					c23.45-86.028-32.888-172.961-120.828-187.701c-97.947-16.418-197.842-0.5-246.915,2.678
					c-24.912,1.615-48.262,12.431-65.697,30.295c-69.145,70.849-223.342,266.945-68.986,483.338
					c22.073-10.557,53.571-27.725,75.514-48.473c-15.303-53.163-12.777-119.76,30.861-198.966c0.931,6.546,2.177,13.044,3.78,19.463
					c43.055,172.101,37.393,312.81,35.305,345.288c-0.277,4.305,1.956,8.479,5.852,10.331
					c68.394,32.523,181.686,25.725,227.505,21.714c8.389-0.734,26.227-1.998,28.736-10.038
					C1251.562,2099.921,1275.612,1876.2,1312.87,1739.522z"/>
				
					<linearGradient id="SVGID_00000066494897297509167470000018186232747930540989_" gradientUnits="userSpaceOnUse" x1="764.6834" y1="1487.2386" x2="1036.8462" y2="1897.79">
					<stop  offset="0" style="stop-color:#E1473D"/>
					<stop  offset="1" style="stop-color:#E9605A"/>
				</linearGradient>
				<path style="fill:url(#SVGID_00000066494897297509167470000018186232747930540989_);" d="M919.315,1803.797
					c-19.347-68.917-9.696-146.859-7.004-165.118c0.323-2.188,2.387-3.654,4.565-3.27l0,0c2.096,0.369,3.519,2.314,3.209,4.419
					c-2.607,17.651-12.168,94.311,6.799,161.841c0.58,2.066-0.575,4.207-2.632,4.82l-0.004,0.001
					C922.146,1807.117,919.908,1805.91,919.315,1803.797z"/>
			</g>
			<g>
				
					<linearGradient id="SVGID_00000156564001078520920240000005350885338576815799_" gradientUnits="userSpaceOnUse" x1="1253.2523" y1="1697.981" x2="834.2355" y2="2283.6523">
					<stop  offset="0" style="stop-color:#FEBBBA"/>
					<stop  offset="1" style="stop-color:#FF928E"/>
				</linearGradient>
				<path style="fill:url(#SVGID_00000156564001078520920240000005350885338576815799_);" d="M885.957,2019.66
					c-21.944,20.748-53.442,37.915-75.514,48.473c29.497,41.353,70.252,83.446,125.032,125.549l6.595,17.594
					c4.893,13.056,13.787,24.229,25.41,31.927l22.135,14.659c12.057,7.982,27.973,6.867,38.798-2.719l9.595-8.498
					c8.776-7.771,9.981-21.032,2.752-30.258l-27.299-34.837c-4.769-6.087-38.707-11.401-45.096-15.758
					C944.487,2149.514,909.058,2099.909,885.957,2019.66z"/>
			</g>
			
				<linearGradient id="SVGID_00000008120118797723067950000000684094258922055347_" gradientUnits="userSpaceOnUse" x1="1124.7144" y1="1301.595" x2="1084.2609" y2="2942.1951">
				<stop  offset="0" style="stop-color:#FEBBBA"/>
				<stop  offset="1" style="stop-color:#FF928E"/>
			</linearGradient>
			<path style="fill:url(#SVGID_00000008120118797723067950000000684094258922055347_);" d="M1081.297,1390.552l-27.323,165.291
				c-0.712,4.464,1.99,8.755,6.334,10.003c20.685,5.939,74.814,21.822,122.634-7.75l-14.378-134.818L1081.297,1390.552z"/>
			<g>
				
					<linearGradient id="SVGID_00000101069622781696542690000002952992334152548788_" gradientUnits="userSpaceOnUse" x1="400.0892" y1="389.4479" x2="197.7511" y2="657.1247" gradientTransform="matrix(0.6854 -0.7281 0.7281 0.6854 583.2305 1318.7853)">
					<stop  offset="0" style="stop-color:#FEBBBA"/>
					<stop  offset="1" style="stop-color:#FF928E"/>
				</linearGradient>
				<path style="fill:url(#SVGID_00000101069622781696542690000002952992334152548788_);" d="M1167.372,1264.695
					c1.942,1.828,81.972,158.99,81.972,158.99l-90.707,43.789l-97.983-137.687
					C1060.654,1329.786,1134.855,1234.086,1167.372,1264.695z"/>
				
					<linearGradient id="SVGID_00000139273004408032203230000015121168410194219672_" gradientUnits="userSpaceOnUse" x1="245.807" y1="459.4338" x2="446.563" y2="459.4338" gradientTransform="matrix(0.6854 -0.7281 0.7281 0.6854 583.2305 1318.7853)">
					<stop  offset="0" style="stop-color:#09005D"/>
					<stop  offset="1" style="stop-color:#1A0F91"/>
				</linearGradient>
				<path style="fill:url(#SVGID_00000139273004408032203230000015121168410194219672_);" d="M1100.788,1333.599
					c-1.618,4.186-1.221,8.858,1.089,12.707l45.24,75.414c0.687,1.144,1.504,2.178,2.481,3.088
					c5.385,5.012,23.812,19.592,38.057-0.258c12.141-16.919,23.532-32.3,35.739-38.643c7.128-3.706,15.9-0.747,19.518,6.425
					c7.453,14.773,21.891,44.888,30.962,73.444c2.273,7.157-1.421,14.842-8.381,17.661c-18.367,7.442-54.668,20.899-86.881,25.345
					c-5.291,0.731-10.53-1.502-13.679-5.816c-13.859-18.986-52.921-72.044-66.254-85.327c-16.291-16.226-38.955-1.658-57.759-6.706
					c-0.925-0.248-1.896-0.549-2.53-1.268c-0.675-0.765-0.829-1.846-0.926-2.862c-0.564-5.9-0.194-11.888,1.092-17.674
					c0.422-1.898,0.944-3.792,1-5.735c0.113-3.957-1.699-7.675-3.29-11.3c-7.133-16.247-10.385-34.116-16.201-50.949
					c-0.791-2.288-1.592-4.654-1.417-7.069c0.118-1.619,0.671-3.172,1.284-4.675c4.792-11.763,13.774-21.657,24.746-27.983
					c9.479-5.465,28.163-5.088,32.784-16.3c1.529-3.709,6.042-5.741,8.77-8.558c4.35-4.491,8.046-9.897,11.992-14.75
					c4.623-5.685,9.881-11.757,17.102-13.005c4.403-0.761,8.884,0.425,13.195,1.6c7.346,2.003,14.874,4.092,21.03,8.574
					c7.96,5.795,12.724,14.912,16.877,23.839c2.027,4.357,4.022,9.059,3.3,13.81c-1.922,12.645-22.435,19.44-33.171,20.802
					C1116.335,1299.998,1105.249,1322.065,1100.788,1333.599z"/>
				
					<linearGradient id="SVGID_00000057845403668372777290000006751389839679172499_" gradientUnits="userSpaceOnUse" x1="107.8794" y1="599.27" x2="267.4017" y2="435.6044" gradientTransform="matrix(0.6854 -0.7281 0.7281 0.6854 583.2305 1318.7853)">
					<stop  offset="0" style="stop-color:#FEBBBA"/>
					<stop  offset="1" style="stop-color:#FF928E"/>
				</linearGradient>
				<path style="fill:url(#SVGID_00000057845403668372777290000006751389839679172499_);" d="M1118.401,1441.068
					c0,0-20.134-46.653-42.411-44.784c-22.278,1.869-39.81,24.061-12.202,49.009
					C1098.13,1476.325,1118.401,1441.068,1118.401,1441.068z"/>
			</g>
			
				<linearGradient id="SVGID_00000012474025099658095410000018073784253844276155_" gradientUnits="userSpaceOnUse" x1="817.9886" y1="1837.2081" x2="1383.4614" y2="1426.5671">
				<stop  offset="0" style="stop-color:#09005D"/>
				<stop  offset="1" style="stop-color:#1A0F91"/>
			</linearGradient>
			<path style="fill:url(#SVGID_00000012474025099658095410000018073784253844276155_);" d="M907.36,1564.527
				c89.309,136.953,19.668,402.114-8.224,412.727c122.432-24.638,131.099-245.319,62.853-435.517
				C941.949,1540.229,921.451,1546.914,907.36,1564.527z"/>
			<g>
				
					<linearGradient id="SVGID_00000105412202656933639740000004291804987735053187_" gradientUnits="userSpaceOnUse" x1="-1594.5123" y1="773.635" x2="-1677.0375" y2="868.7355" gradientTransform="matrix(0.6225 0.7826 -0.7826 0.6225 2782.7473 2005.1622)">
					<stop  offset="0" style="stop-color:#4F52FF"/>
					<stop  offset="1" style="stop-color:#4042E2"/>
				</linearGradient>
				<path style="fill:url(#SVGID_00000105412202656933639740000004291804987735053187_);" d="M1062.712,1242.11
					c-5.775,4.593-13.57,4.401-17.411-0.429c-3.842-4.83-2.275-12.469,3.5-17.062c5.774-4.593,13.57-4.401,17.411,0.429
					S1068.486,1237.517,1062.712,1242.11z"/>
				
					<linearGradient id="SVGID_00000161591989988710461430000014968957385226702229_" gradientUnits="userSpaceOnUse" x1="1139.7579" y1="1187.254" x2="1051.2217" y2="1457.781">
					<stop  offset="0" style="stop-color:#4F52FF"/>
					<stop  offset="1" style="stop-color:#4042E2"/>
				</linearGradient>
				<path style="fill:url(#SVGID_00000161591989988710461430000014968957385226702229_);" d="M1031.915,1384.741
					c-90.773-139.736,112.771-242.143,170.552-101.598c-56.557,25.893-113.544,60.69-161.338,102.851
					C1038.315,1388.476,1033.959,1387.888,1031.915,1384.741z"/>
				
					<linearGradient id="SVGID_00000030478544742393695990000011947323285161779901_" gradientUnits="userSpaceOnUse" x1="1350.3536" y1="1239.26" x2="1089.6638" y2="1355.6686">
					<stop  offset="0" style="stop-color:#4F52FF"/>
					<stop  offset="1" style="stop-color:#4042E2"/>
				</linearGradient>
				<path style="fill:url(#SVGID_00000030478544742393695990000011947323285161779901_);" d="M1082.559,1352.403
					c67.193-18.632,149.649-28.787,177.362-48.417c24.351-14.434,30.599-42.724,10.97-37.528l-73.042,17.812
					C1154.342,1297.054,1116.537,1320.987,1082.559,1352.403z"/>
			</g>
		</g>
		<g>
			<g>
				
					<linearGradient id="SVGID_00000070835075272366584270000017592007018032280237_" gradientUnits="userSpaceOnUse" x1="1999.3839" y1="110.7126" x2="2160.0928" y2="642.8951" gradientTransform="matrix(0.9825 0.1862 -0.1862 0.9825 476.91 113.5017)">
					<stop  offset="0" style="stop-color:#E1473D"/>
					<stop  offset="1" style="stop-color:#E9605A"/>
				</linearGradient>
				<path style="fill:url(#SVGID_00000070835075272366584270000017592007018032280237_);" d="M2556.898,813.666l-94.379-55.205
					c-1.942-1.136-4.245-1.486-6.437-0.977l-120.215,27.873c-3.239,0.751-5.779,3.262-6.568,6.492
					c-0.789,3.231,0.309,6.629,2.838,8.789l74.078,63.236L2556.898,813.666z"/>
				
					<linearGradient id="SVGID_00000035532915737609319310000011159903886314918571_" gradientUnits="userSpaceOnUse" x1="2603.2483" y1="-306.6107" x2="2522.467" y2="252.1284">
					<stop  offset="0" style="stop-color:#FF928E"/>
					<stop  offset="1" style="stop-color:#FE7062"/>
				</linearGradient>
				<path style="fill:url(#SVGID_00000035532915737609319310000011159903886314918571_);" d="M1754.805,941.391
					c0,0,1121.131-230.63,1165.44-217.691c44.308,12.939,124.063,57.546,147.224,57.042c23.161-0.504,104.526,11.628,84.942,69.984
					c-19.585,58.356-949.035,259.325-1058.698,224.636c-109.662-34.688-386.789-98.173-386.789-98.173
					S1680.589,938.372,1754.805,941.391z"/>
				
					<linearGradient id="SVGID_00000166640307268027843160000011011150407856085411_" gradientUnits="userSpaceOnUse" x1="2150.1414" y1="577.7789" x2="1490.4238" y2="1072.567">
					<stop  offset="0" style="stop-color:#FF928E"/>
					<stop  offset="0.2853" style="stop-color:#FF8E89"/>
					<stop  offset="0.6257" style="stop-color:#FF837A"/>
					<stop  offset="0.9929" style="stop-color:#FE7063"/>
					<stop  offset="1" style="stop-color:#FE7062"/>
				</linearGradient>
				<path style="fill:url(#SVGID_00000166640307268027843160000011011150407856085411_);" d="M2079.427,878.784l-164.319-85.999
					c-10.303-5.392-18.886-13.568-24.774-23.596l-68.526-116.732c-5.429-9.25-16.27-13.885-26.704-11.404
					c-33.407,7.944-102.693,25.372-102.827,33.287c-0.177,10.431,40.463,271.177,40.463,271.177L2079.427,878.784z"/>
				
					<linearGradient id="SVGID_00000041977305278973615590000007645242886810402748_" gradientUnits="userSpaceOnUse" x1="1481.8827" y1="789.184" x2="1276.3857" y2="1895.7042" gradientTransform="matrix(0.9825 0.1862 -0.1862 0.9825 476.91 113.5017)">
					<stop  offset="0" style="stop-color:#FEBBBA"/>
					<stop  offset="1" style="stop-color:#FF928E"/>
				</linearGradient>
				<path style="fill:url(#SVGID_00000041977305278973615590000007645242886810402748_);" d="M1766.273,978.598l-12.09,55.5
					c-2.04,9.365,0.318,18.78,6.411,26.178c6.093,7.397,15.233,11.226,24.815,11.017l57.25-1.246
					c9.041-0.197,17.562-3.929,23.352-10.875l99.285-118.9L1766.273,978.598z"/>
				
					<linearGradient id="SVGID_00000106105605571212602800000015573177816894354332_" gradientUnits="userSpaceOnUse" x1="3412.959" y1="1602.4525" x2="2921.5352" y2="1333.1796">
					<stop  offset="0" style="stop-color:#FF928E"/>
					<stop  offset="1" style="stop-color:#FE7062"/>
				</linearGradient>
				<path style="fill:url(#SVGID_00000106105605571212602800000015573177816894354332_);" d="M2360.845,1148.136
					c0,0,35.667,41.802,92.122,40.573c56.455-1.229,125.597-18.374,138.19-38.634c12.593-20.26,37.168-168.428-77.012-144.697
					C2399.964,1029.108,2267.665,1098.896,2360.845,1148.136z"/>
				
					<linearGradient id="SVGID_00000178914306372615489060000008073153209329181371_" gradientUnits="userSpaceOnUse" x1="2239.8857" y1="1383.7019" x2="2404.8162" y2="962.9614">
					<stop  offset="0" style="stop-color:#FEBBBA"/>
					<stop  offset="1" style="stop-color:#FF928E"/>
				</linearGradient>
				<path style="fill:url(#SVGID_00000178914306372615489060000008073153209329181371_);" d="M2293.257,997.147l266.477-53.197
					l-218.069,293.829c-3.057,4.119-7.698,6.772-12.799,7.317l-159.968,17.07c-6.924,0.739-13.671-2.502-17.422-8.369
					c-3.751-5.867-3.861-13.351-0.284-19.326L2293.257,997.147z"/>
				
					<linearGradient id="SVGID_00000079447301122723279960000004506151837621643656_" gradientUnits="userSpaceOnUse" x1="2142.4248" y1="1166.9672" x2="2546.8108" y2="866.168" gradientTransform="matrix(0.9962 0.0868 -0.0868 0.9962 228.6686 -74.8815)">
					<stop  offset="0" style="stop-color:#FEBBBA"/>
					<stop  offset="1" style="stop-color:#FF928E"/>
				</linearGradient>
				<path style="fill:url(#SVGID_00000079447301122723279960000004506151837621643656_);" d="M2576.528,1154.468
					c0.691,0.129,1.36,0.142,2.012,0.041c3.568-0.556,7.069-4.35,10.41-11.277c10.741-22.272,16.792-69.563-3.376-104.963l0,0
					c-5.978-10.484-16.727-17.053-28.774-17.618c-9.89-0.443-22.427,2.789-26.006,20.724
					c-5.606,28.113,22.732,91.931,38.316,108.194C2571.853,1152.431,2574.3,1154.052,2576.528,1154.468z M2560.635,1025.998
					c8.613,1.607,16.311,6.99,20.696,14.689l0,0c19.085,33.491,13.204,79.722,3.222,100.424c-2.892,6.002-5.451,8.371-6.761,8.573
					c-0.171,0.031-1.684,0.137-5.158-3.493c-16.209-16.918-42.005-79.029-37.051-103.865c2.36-11.833,9.229-17.327,20.996-16.799
					C2557.948,1025.588,2559.305,1025.75,2560.635,1025.998z"/>
				
					<linearGradient id="SVGID_00000146472870432136743850000011697962883818860471_" gradientUnits="userSpaceOnUse" x1="1731.4242" y1="1132.7426" x2="2165.6641" y2="1597.5142" gradientTransform="matrix(0.9997 -0.0262 0.0262 0.9997 -41.9282 -269.1272)">
					<stop  offset="0" style="stop-color:#FEBBBA"/>
					<stop  offset="1" style="stop-color:#FF928E"/>
				</linearGradient>
				<polygon style="fill:url(#SVGID_00000146472870432136743850000011697962883818860471_);" points="1700.173,736.248 
					1727.966,735.643 1757.884,912.498 1728.819,919.961 				"/>
				<g>
					<g>
						
							<linearGradient id="SVGID_00000099645556572375302560000015138312483696375173_" gradientUnits="userSpaceOnUse" x1="2935.0256" y1="-1142.6301" x2="2847.5083" y2="-768.9996" gradientTransform="matrix(0.9997 -0.0217 0.0217 0.9997 -187.252 -418.3804)">
							<stop  offset="0" style="stop-color:#09005D"/>
							<stop  offset="1" style="stop-color:#1A0F91"/>
						</linearGradient>
						<path style="fill:url(#SVGID_00000099645556572375302560000015138312483696375173_);" d="M2161.659,939.688
							c-0.199-9.143,7.052-16.716,16.195-16.915l1.052-0.023c9.143-0.199,16.716,7.051,16.915,16.195l0.236,10.813
							c0.199,9.143-7.052,16.716-16.195,16.915l-1.053,0.023c-9.143,0.199-16.716-7.051-16.915-16.195L2161.659,939.688z"/>
						
							<linearGradient id="SVGID_00000071549026550266864250000006930822083001351838_" gradientUnits="userSpaceOnUse" x1="2994.1025" y1="-1128.7911" x2="2906.5852" y2="-755.1606" gradientTransform="matrix(0.9997 -0.0217 0.0217 0.9997 -187.252 -418.3804)">
							<stop  offset="0" style="stop-color:#09005D"/>
							<stop  offset="1" style="stop-color:#1A0F91"/>
						</linearGradient>
						<path style="fill:url(#SVGID_00000071549026550266864250000006930822083001351838_);" d="M2224.997,933.427
							c-0.199-9.143,7.052-16.716,16.194-16.915l1.052-0.023c9.143-0.199,16.716,7.052,16.915,16.194l0.235,10.813
							c0.199,9.143-7.052,16.716-16.194,16.915l-1.053,0.023c-9.143,0.199-16.716-7.051-16.915-16.194L2224.997,933.427z"/>
						
							<linearGradient id="SVGID_00000140731604214239645990000006662170969315905159_" gradientUnits="userSpaceOnUse" x1="3051.0122" y1="-1115.4668" x2="2963.4949" y2="-741.8361" gradientTransform="matrix(0.9997 -0.0217 0.0217 0.9997 -187.252 -418.3804)">
							<stop  offset="0" style="stop-color:#09005D"/>
							<stop  offset="1" style="stop-color:#1A0F91"/>
						</linearGradient>
						<path style="fill:url(#SVGID_00000140731604214239645990000006662170969315905159_);" d="M2288.122,917.405
							c-0.199-9.143,7.052-16.716,16.194-16.915l1.053-0.023c9.143-0.199,16.716,7.051,16.915,16.194l0.235,10.813
							c0.199,9.143-7.052,16.716-16.195,16.915l-1.052,0.023c-9.143,0.199-16.716-7.052-16.915-16.195L2288.122,917.405z"/>
						
							<linearGradient id="SVGID_00000154417808285666711740000014731257486968688048_" gradientUnits="userSpaceOnUse" x1="3104.3767" y1="-1102.9647" x2="3016.8594" y2="-729.334" gradientTransform="matrix(0.9997 -0.0217 0.0217 0.9997 -187.252 -418.3804)">
							<stop  offset="0" style="stop-color:#09005D"/>
							<stop  offset="1" style="stop-color:#1A0F91"/>
						</linearGradient>
						<path style="fill:url(#SVGID_00000154417808285666711740000014731257486968688048_);" d="M2346.473,906.37
							c-0.199-9.143,7.052-16.716,16.194-16.915l1.052-0.023c9.143-0.199,16.716,7.052,16.916,16.194l0.235,10.813
							c0.199,9.143-7.051,16.716-16.194,16.915l-1.052,0.023c-9.143,0.199-16.716-7.052-16.916-16.195L2346.473,906.37z"/>
						
							<linearGradient id="SVGID_00000026156574092713255920000016334979706481121955_" gradientUnits="userSpaceOnUse" x1="3166.998" y1="-1088.2998" x2="3079.4807" y2="-714.6689" gradientTransform="matrix(0.9997 -0.0217 0.0217 0.9997 -187.252 -418.3804)">
							<stop  offset="0" style="stop-color:#09005D"/>
							<stop  offset="1" style="stop-color:#1A0F91"/>
						</linearGradient>
						<path style="fill:url(#SVGID_00000026156574092713255920000016334979706481121955_);" d="M2414.585,895.123
							c-0.199-9.143,7.052-16.716,16.194-16.915l1.053-0.023c9.143-0.199,16.716,7.051,16.915,16.194l0.235,10.813
							c0.199,9.143-7.052,16.716-16.194,16.915l-1.053,0.023c-9.143,0.199-16.716-7.052-16.915-16.195L2414.585,895.123z"/>
						
							<linearGradient id="SVGID_00000021814585102745285740000005360992123318853012_" gradientUnits="userSpaceOnUse" x1="3224.9915" y1="-1074.7179" x2="3137.4739" y2="-701.0867" gradientTransform="matrix(0.9997 -0.0217 0.0217 0.9997 -187.252 -418.3804)">
							<stop  offset="0" style="stop-color:#09005D"/>
							<stop  offset="1" style="stop-color:#1A0F91"/>
						</linearGradient>
						<path style="fill:url(#SVGID_00000021814585102745285740000005360992123318853012_);" d="M2477.816,883.981
							c-0.199-9.143,7.052-16.716,16.194-16.915l1.052-0.023c9.143-0.199,16.716,7.052,16.916,16.195l0.235,10.813
							c0.199,9.143-7.051,16.716-16.194,16.915l-1.052,0.023c-9.143,0.199-16.716-7.052-16.915-16.195L2477.816,883.981z"/>
						
							<linearGradient id="SVGID_00000010302377030410954650000009155839835696033973_" gradientUnits="userSpaceOnUse" x1="3281.9011" y1="-1061.3928" x2="3194.3838" y2="-687.7615" gradientTransform="matrix(0.9997 -0.0217 0.0217 0.9997 -187.252 -418.3804)">
							<stop  offset="0" style="stop-color:#09005D"/>
							<stop  offset="1" style="stop-color:#1A0F91"/>
						</linearGradient>
						<path style="fill:url(#SVGID_00000010302377030410954650000009155839835696033973_);" d="M2540.941,867.959
							c-0.199-9.143,7.052-16.716,16.195-16.915l1.053-0.023c9.143-0.199,16.716,7.052,16.915,16.195l0.236,10.813
							c0.199,9.143-7.052,16.716-16.195,16.915l-1.052,0.023c-9.143,0.199-16.716-7.052-16.915-16.194L2540.941,867.959z"/>
						
							<linearGradient id="SVGID_00000152974962712590690670000017632900090411478205_" gradientUnits="userSpaceOnUse" x1="3336.3503" y1="-1048.6387" x2="3248.8328" y2="-675.0074" gradientTransform="matrix(0.9997 -0.0217 0.0217 0.9997 -187.252 -418.3804)">
							<stop  offset="0" style="stop-color:#09005D"/>
							<stop  offset="1" style="stop-color:#1A0F91"/>
						</linearGradient>
						<path style="fill:url(#SVGID_00000152974962712590690670000017632900090411478205_);" d="M2599.399,861.804
							c-0.198-9.143,7.052-16.716,16.195-16.915l1.052-0.023c9.143-0.199,16.716,7.052,16.915,16.195l0.236,10.813
							c0.199,9.143-7.052,16.716-16.194,16.915l-1.053,0.023c-9.143,0.199-16.716-7.052-16.915-16.194L2599.399,861.804z"/>
						
							<linearGradient id="SVGID_00000083809117805521948690000007387538786607932571_" gradientUnits="userSpaceOnUse" x1="3394.3433" y1="-1035.0553" x2="3306.8259" y2="-661.4242" gradientTransform="matrix(0.9997 -0.0217 0.0217 0.9997 -187.252 -418.3804)">
							<stop  offset="0" style="stop-color:#09005D"/>
							<stop  offset="1" style="stop-color:#1A0F91"/>
						</linearGradient>
						<path style="fill:url(#SVGID_00000083809117805521948690000007387538786607932571_);" d="M2662.63,850.663
							c-0.198-9.143,7.052-16.716,16.195-16.915l1.052-0.023c9.143-0.199,16.716,7.051,16.915,16.194l0.235,10.814
							c0.199,9.143-7.052,16.716-16.195,16.915l-1.052,0.023c-9.143,0.199-16.716-7.052-16.915-16.195L2662.63,850.663z"/>
						
							<linearGradient id="SVGID_00000077321581274403569770000012951155310490392230_" gradientUnits="userSpaceOnUse" x1="3451.252" y1="-1021.7261" x2="3363.7346" y2="-648.0948" gradientTransform="matrix(0.9997 -0.0217 0.0217 0.9997 -187.252 -418.3804)">
							<stop  offset="0" style="stop-color:#09005D"/>
							<stop  offset="1" style="stop-color:#1A0F91"/>
						</linearGradient>
						<path style="fill:url(#SVGID_00000077321581274403569770000012951155310490392230_);" d="M2725.756,834.641
							c-0.199-9.143,7.052-16.716,16.194-16.915l1.053-0.023c9.143-0.199,16.716,7.051,16.915,16.195l0.235,10.813
							c0.199,9.143-7.052,16.716-16.194,16.915l-1.052,0.023c-9.143,0.199-16.716-7.052-16.915-16.195L2725.756,834.641z"/>
						
							<linearGradient id="SVGID_00000083077284262254957800000011763438186815746741_" gradientUnits="userSpaceOnUse" x1="3505.7014" y1="-1008.9716" x2="3418.1838" y2="-635.3403" gradientTransform="matrix(0.9997 -0.0217 0.0217 0.9997 -187.252 -418.3804)">
							<stop  offset="0" style="stop-color:#09005D"/>
							<stop  offset="1" style="stop-color:#1A0F91"/>
						</linearGradient>
						<path style="fill:url(#SVGID_00000083077284262254957800000011763438186815746741_);" d="M2784.213,828.487
							c-0.199-9.143,7.052-16.716,16.195-16.915l1.052-0.023c9.143-0.199,16.716,7.051,16.915,16.195l0.235,10.813
							c0.199,9.143-7.051,16.716-16.195,16.915l-1.052,0.023c-9.143,0.199-16.716-7.052-16.915-16.195L2784.213,828.487z"/>
					</g>
					
						<linearGradient id="SVGID_00000073701947587620738770000002012895446519615133_" gradientUnits="userSpaceOnUse" x1="3655.842" y1="-973.8372" x2="3568.3235" y2="-600.201" gradientTransform="matrix(0.9997 -0.0217 0.0217 0.9997 -187.252 -418.3804)">
						<stop  offset="0" style="stop-color:#09005D"/>
						<stop  offset="1" style="stop-color:#1A0F91"/>
					</linearGradient>
					<path style="fill:url(#SVGID_00000073701947587620738770000002012895446519615133_);" d="M2999.625,756.795l-110.643,33.335
						c-8.31,2.512-13.663,10.595-12.704,19.222c1.139,10.255,2.943,21.833,5.214,20.801c4.016-1.826,177.559-49.948,177.559-49.948
						L2999.625,756.795z"/>
				</g>
			</g>
		</g>
	</g>
</g>
</svg>
